<svg xmlns="http://www.w3.org/2000/svg" xmlns:xlink="http://www.w3.org/1999/xlink" width="500" zoomAndPan="magnify" viewBox="0 0 375 374.999991" height="500" preserveAspectRatio="xMidYMid meet" version="1.0"><defs><clipPath id="ca235f78e4"><path d="M 192 178 L 289 178 L 289 262.886719 L 192 262.886719 Z M 192 178 " clip-rule="nonzero"/></clipPath><clipPath id="9fa034b716"><path d="M 86 186 L 224 186 L 224 262.886719 L 86 262.886719 Z M 86 186 " clip-rule="nonzero"/></clipPath><clipPath id="91492462ac"><path d="M 86 166 L 273 166 L 273 262.886719 L 86 262.886719 Z M 86 166 " clip-rule="nonzero"/></clipPath><clipPath id="3963863116"><path d="M 137 79.136719 L 237 79.136719 L 237 206 L 137 206 Z M 137 79.136719 " clip-rule="nonzero"/></clipPath></defs><path fill="#1976d2" d="M 271.683594 183.886719 L 265.789062 164.773438 C 265.460938 163.695312 265.046875 162.648438 264.550781 161.636719 C 264.054688 160.625 263.480469 159.65625 262.828125 158.738281 C 262.175781 157.816406 261.457031 156.953125 260.664062 156.148438 C 259.875 155.34375 259.027344 154.605469 258.117188 153.933594 C 257.207031 153.265625 256.25 152.671875 255.246094 152.15625 C 254.242188 151.640625 253.203125 151.207031 252.132812 150.855469 C 251.058594 150.503906 249.960938 150.242188 248.847656 150.066406 C 247.730469 149.890625 246.609375 149.804688 245.476562 149.808594 L 129.085938 149.808594 C 127.957031 149.804688 126.832031 149.890625 125.71875 150.066406 C 124.601562 150.242188 123.507812 150.503906 122.433594 150.855469 C 121.359375 151.207031 120.320312 151.640625 119.316406 152.15625 C 118.3125 152.671875 117.355469 153.265625 116.445312 153.9375 C 115.535156 154.605469 114.6875 155.34375 113.894531 156.148438 C 113.105469 156.953125 112.382812 157.816406 111.734375 158.738281 C 111.082031 159.660156 110.507812 160.625 110.011719 161.640625 C 109.515625 162.652344 109.101562 163.699219 108.773438 164.777344 L 105.65625 174.890625 C 105.421875 175.652344 105.320312 176.429688 105.347656 177.222656 C 105.378906 178.015625 105.539062 178.785156 105.824219 179.527344 C 106.113281 180.265625 106.515625 180.941406 107.035156 181.546875 C 107.550781 182.152344 108.152344 182.65625 108.839844 183.058594 L 212.707031 244.019531 C 213.402344 244.425781 214.144531 244.707031 214.933594 244.863281 C 215.726562 245.015625 216.519531 245.035156 217.316406 244.921875 C 218.113281 244.804688 218.867188 244.5625 219.582031 244.1875 C 220.296875 243.816406 220.925781 243.335938 221.476562 242.746094 L 270.085938 190.785156 C 270.511719 190.332031 270.871094 189.828125 271.164062 189.28125 C 271.457031 188.730469 271.671875 188.15625 271.8125 187.550781 C 271.953125 186.945312 272.011719 186.332031 271.988281 185.710938 C 271.96875 185.089844 271.863281 184.480469 271.683594 183.886719 Z M 271.683594 183.886719 " fill-opacity="1" fill-rule="nonzero"/><path fill="#689f38" d="M 143.8125 187.1875 L 116.023438 170.878906 C 115.5625 170.605469 115.078125 170.390625 114.566406 170.230469 C 114.054688 170.070312 113.535156 169.96875 113.003906 169.925781 C 112.46875 169.882812 111.9375 169.898438 111.410156 169.976562 C 110.878906 170.050781 110.367188 170.1875 109.867188 170.378906 C 109.367188 170.574219 108.898438 170.820312 108.457031 171.117188 C 108.011719 171.417969 107.609375 171.761719 107.246094 172.152344 C 106.878906 172.542969 106.566406 172.972656 106.296875 173.433594 C 106.03125 173.894531 105.816406 174.382812 105.660156 174.890625 L 91.621094 220.414062 C 91.402344 221.117188 91.300781 221.835938 91.308594 222.574219 C 91.316406 223.308594 91.4375 224.027344 91.667969 224.726562 C 91.902344 225.421875 92.238281 226.070312 92.671875 226.664062 C 93.109375 227.257812 93.625 227.773438 94.21875 228.203125 C 94.816406 228.636719 95.464844 228.96875 96.164062 229.203125 C 96.867188 229.433594 97.585938 229.550781 98.324219 229.558594 C 99.058594 229.566406 99.78125 229.460938 100.484375 229.242188 C 101.191406 229.023438 101.84375 228.703125 102.449219 228.28125 L 144.277344 199.070312 C 144.519531 198.902344 144.75 198.71875 144.96875 198.519531 C 145.1875 198.324219 145.394531 198.113281 145.585938 197.886719 C 145.78125 197.664062 145.957031 197.429688 146.121094 197.183594 C 146.285156 196.9375 146.429688 196.683594 146.5625 196.421875 C 146.691406 196.15625 146.808594 195.886719 146.90625 195.605469 C 147.003906 195.328125 147.082031 195.046875 147.144531 194.757812 C 147.203125 194.46875 147.25 194.179688 147.273438 193.886719 C 147.300781 193.589844 147.304688 193.296875 147.292969 193.003906 C 147.28125 192.707031 147.253906 192.414062 147.203125 192.125 C 147.15625 191.835938 147.089844 191.546875 147.007812 191.265625 C 146.921875 190.984375 146.820312 190.707031 146.703125 190.4375 C 146.582031 190.167969 146.449219 189.90625 146.296875 189.652344 C 146.144531 189.398438 145.976562 189.15625 145.796875 188.925781 C 145.613281 188.691406 145.417969 188.472656 145.207031 188.265625 C 145 188.058594 144.777344 187.863281 144.542969 187.683594 C 144.308594 187.503906 144.066406 187.339844 143.8125 187.1875 Z M 143.8125 187.1875 " fill-opacity="1" fill-rule="nonzero"/><g clip-path="url(#ca235f78e4)"><path fill="#689f38" d="M 287.582031 235.449219 L 271.679688 183.886719 C 271.589844 183.59375 271.476562 183.304688 271.351562 183.023438 C 271.222656 182.742188 271.074219 182.472656 270.910156 182.210938 C 270.746094 181.949219 270.566406 181.699219 270.367188 181.460938 C 270.171875 181.222656 269.960938 181 269.734375 180.789062 C 269.507812 180.578125 269.269531 180.386719 269.015625 180.207031 C 268.765625 180.027344 268.503906 179.867188 268.230469 179.722656 C 267.957031 179.578125 267.675781 179.449219 267.386719 179.34375 C 267.09375 179.234375 266.800781 179.144531 266.5 179.078125 C 266.195312 179.007812 265.894531 178.957031 265.585938 178.929688 C 265.277344 178.898438 264.96875 178.890625 264.660156 178.902344 C 264.351562 178.910156 264.042969 178.941406 263.738281 178.992188 C 263.433594 179.046875 263.132812 179.117188 262.835938 179.207031 C 262.542969 179.296875 262.253906 179.40625 261.972656 179.535156 C 261.691406 179.660156 261.417969 179.808594 261.15625 179.972656 C 260.894531 180.132812 260.644531 180.3125 260.40625 180.511719 C 260.167969 180.707031 259.941406 180.917969 259.730469 181.144531 L 194.382812 251 C 193.914062 251.503906 193.523438 252.0625 193.21875 252.679688 C 192.910156 253.296875 192.699219 253.941406 192.582031 254.621094 C 192.464844 255.300781 192.449219 255.980469 192.53125 256.664062 C 192.613281 257.347656 192.792969 258.003906 193.066406 258.636719 C 193.339844 259.265625 193.699219 259.847656 194.144531 260.371094 C 194.589844 260.898438 195.101562 261.351562 195.679688 261.730469 C 196.253906 262.105469 196.875 262.394531 197.535156 262.589844 C 198.195312 262.789062 198.871094 262.886719 199.5625 262.886719 L 267.273438 262.886719 C 268.101562 262.886719 268.925781 262.839844 269.75 262.742188 C 270.570312 262.644531 271.386719 262.503906 272.191406 262.3125 C 273 262.121094 273.789062 261.882812 274.570312 261.597656 C 275.347656 261.3125 276.105469 260.984375 276.847656 260.613281 C 277.585938 260.242188 278.300781 259.828125 278.992188 259.371094 C 279.683594 258.914062 280.34375 258.421875 280.980469 257.886719 C 281.613281 257.355469 282.210938 256.785156 282.777344 256.183594 C 283.34375 255.578125 283.875 254.945312 284.367188 254.28125 C 284.859375 253.617188 285.308594 252.925781 285.722656 252.207031 C 286.132812 251.488281 286.5 250.75 286.824219 249.988281 C 287.148438 249.230469 287.429688 248.453125 287.660156 247.660156 C 287.894531 246.867188 288.082031 246.0625 288.222656 245.246094 C 288.359375 244.433594 288.453125 243.613281 288.496094 242.785156 C 288.539062 241.960938 288.53125 241.136719 288.476562 240.3125 C 288.425781 239.484375 288.324219 238.667969 288.171875 237.855469 C 288.023438 237.039062 287.828125 236.238281 287.582031 235.449219 Z M 287.582031 235.449219 " fill-opacity="1" fill-rule="nonzero"/></g><g clip-path="url(#9fa034b716)"><path fill="#1976d2" d="M 219.890625 231.835938 L 143.808594 187.1875 C 143.222656 186.847656 142.601562 186.589844 141.941406 186.425781 C 141.285156 186.261719 140.617188 186.191406 139.9375 186.21875 C 139.261719 186.246094 138.597656 186.367188 137.957031 186.582031 C 137.3125 186.800781 136.710938 187.101562 136.15625 187.488281 L 94.328125 216.699219 C 93 217.628906 92.097656 218.867188 91.621094 220.414062 L 86.980469 235.445312 C 86.738281 236.234375 86.542969 237.039062 86.390625 237.851562 C 86.242188 238.664062 86.140625 239.484375 86.085938 240.308594 C 86.03125 241.132812 86.027344 241.957031 86.070312 242.785156 C 86.113281 243.609375 86.203125 244.429688 86.34375 245.246094 C 86.480469 246.058594 86.667969 246.863281 86.902344 247.65625 C 87.136719 248.449219 87.414062 249.226562 87.738281 249.988281 C 88.0625 250.75 88.429688 251.488281 88.84375 252.207031 C 89.253906 252.921875 89.703125 253.613281 90.195312 254.28125 C 90.6875 254.945312 91.21875 255.578125 91.785156 256.183594 C 92.351562 256.785156 92.953125 257.351562 93.585938 257.886719 C 94.21875 258.417969 94.878906 258.914062 95.570312 259.371094 C 96.261719 259.828125 96.976562 260.242188 97.71875 260.613281 C 98.457031 260.984375 99.214844 261.3125 99.996094 261.597656 C 100.773438 261.882812 101.566406 262.117188 102.371094 262.3125 C 103.175781 262.503906 103.992188 262.644531 104.816406 262.742188 C 105.636719 262.839844 106.464844 262.886719 107.292969 262.886719 L 199.5625 262.886719 C 200.542969 262.886719 201.484375 262.691406 202.382812 262.300781 C 203.285156 261.910156 204.070312 261.355469 204.738281 260.640625 L 221.476562 242.746094 C 221.839844 242.359375 222.152344 241.9375 222.421875 241.480469 C 222.6875 241.023438 222.902344 240.542969 223.058594 240.039062 C 223.21875 239.53125 223.320312 239.015625 223.359375 238.488281 C 223.402344 237.960938 223.386719 237.433594 223.308594 236.910156 C 223.234375 236.386719 223.101562 235.878906 222.910156 235.386719 C 222.71875 234.890625 222.476562 234.425781 222.179688 233.984375 C 221.882812 233.546875 221.542969 233.144531 221.15625 232.78125 C 220.769531 232.417969 220.347656 232.105469 219.890625 231.835938 Z M 219.890625 231.835938 " fill-opacity="1" fill-rule="nonzero"/></g><g clip-path="url(#91492462ac)"><path fill="#ffb300" d="M 272.855469 187.761719 L 202.582031 262.886719 L 183.246094 262.886719 L 205.0625 239.566406 L 140.53125 201.683594 L 86.054688 239.707031 C 86.191406 238.257812 86.5 236.84375 86.976562 235.464844 L 92.359375 218.082031 L 127.140625 193.769531 L 104.046875 180.199219 L 108.296875 166.347656 L 214.980469 228.964844 L 267.117188 173.273438 C 267.394531 172.933594 267.726562 172.648438 268.109375 172.425781 Z M 272.855469 187.761719 " fill-opacity="1" fill-rule="nonzero"/></g><g clip-path="url(#3963863116)"><path fill="#f44336" d="M 221.859375 93.90625 C 219.496094 91.585938 216.917969 89.527344 214.132812 87.730469 C 211.347656 85.929688 208.410156 84.429688 205.320312 83.226562 C 202.226562 82.027344 199.046875 81.144531 195.777344 80.585938 C 192.507812 80.027344 189.214844 79.804688 185.898438 79.914062 C 184.320312 79.96875 182.75 80.101562 181.1875 80.308594 C 179.621094 80.515625 178.070312 80.792969 176.53125 81.144531 C 174.992188 81.496094 173.476562 81.921875 171.976562 82.417969 C 170.480469 82.910156 169.007812 83.476562 167.5625 84.113281 C 166.121094 84.746094 164.707031 85.445312 163.332031 86.214844 C 161.953125 86.980469 160.613281 87.8125 159.316406 88.707031 C 158.015625 89.601562 156.761719 90.554688 155.554688 91.566406 C 154.34375 92.578125 153.1875 93.644531 152.078125 94.769531 C 150.972656 95.890625 149.921875 97.0625 148.925781 98.28125 C 147.925781 99.503906 146.992188 100.769531 146.113281 102.078125 C 145.238281 103.386719 144.425781 104.734375 143.675781 106.121094 C 142.929688 107.507812 142.246094 108.925781 141.632812 110.375 C 141.019531 111.824219 140.476562 113.300781 140 114.804688 C 139.527344 116.304688 139.125 117.828125 138.796875 119.367188 C 138.464844 120.90625 138.210938 122.457031 138.027344 124.023438 C 137.84375 125.585938 137.738281 127.15625 137.703125 128.730469 C 137.65625 131.410156 137.832031 134.078125 138.230469 136.730469 C 138.628906 139.382812 139.242188 141.988281 140.070312 144.539062 C 140.898438 147.089844 141.933594 149.554688 143.171875 151.9375 C 144.410156 154.316406 145.835938 156.582031 147.449219 158.726562 C 148.34375 160.0625 170.671875 191.039062 177.808594 200.90625 C 178.070312 201.265625 178.347656 201.609375 178.648438 201.9375 C 178.949219 202.261719 179.269531 202.570312 179.605469 202.859375 C 179.945312 203.148438 180.296875 203.417969 180.667969 203.664062 C 181.035156 203.914062 181.417969 204.140625 181.8125 204.34375 C 182.207031 204.542969 182.613281 204.722656 183.03125 204.878906 C 183.445312 205.035156 183.871094 205.164062 184.304688 205.269531 C 184.734375 205.375 185.171875 205.453125 185.613281 205.507812 C 186.054688 205.5625 186.496094 205.589844 186.941406 205.59375 C 187.386719 205.59375 187.832031 205.570312 188.273438 205.519531 C 188.714844 205.46875 189.152344 205.394531 189.585938 205.292969 C 190.015625 205.191406 190.441406 205.066406 190.859375 204.914062 C 191.277344 204.761719 191.6875 204.585938 192.082031 204.386719 C 192.480469 204.1875 192.863281 203.964844 193.234375 203.71875 C 193.605469 203.476562 193.960938 203.210938 194.300781 202.925781 C 194.640625 202.636719 194.960938 202.332031 195.265625 202.007812 C 195.570312 201.683594 195.851562 201.34375 196.117188 200.984375 C 196.386719 200.628906 225.851562 160.4375 226.996094 158.980469 C 228.582031 156.851562 229.984375 154.609375 231.210938 152.257812 C 232.4375 149.90625 233.46875 147.472656 234.304688 144.957031 C 235.144531 142.445312 235.777344 139.878906 236.207031 137.261719 C 236.636719 134.648438 236.859375 132.015625 236.867188 129.363281 C 236.878906 126.054688 236.558594 122.78125 235.90625 119.539062 C 235.253906 116.296875 234.28125 113.152344 232.992188 110.105469 C 231.703125 107.058594 230.121094 104.171875 228.246094 101.445312 C 226.375 98.71875 224.246094 96.203125 221.859375 93.90625 Z M 221.859375 93.90625 " fill-opacity="1" fill-rule="nonzero"/></g><path fill="#eeeeee" d="M 208.535156 130.019531 C 208.535156 130.714844 208.5 131.410156 208.429688 132.097656 C 208.363281 132.789062 208.261719 133.476562 208.125 134.15625 C 207.988281 134.839844 207.820312 135.511719 207.617188 136.175781 C 207.417969 136.839844 207.183594 137.492188 206.914062 138.136719 C 206.648438 138.777344 206.351562 139.402344 206.023438 140.015625 C 205.695312 140.628906 205.339844 141.222656 204.953125 141.800781 C 204.566406 142.378906 204.152344 142.933594 203.710938 143.472656 C 203.269531 144.007812 202.800781 144.523438 202.308594 145.011719 C 201.816406 145.503906 201.300781 145.96875 200.765625 146.410156 C 200.226562 146.851562 199.667969 147.265625 199.089844 147.648438 C 198.511719 148.035156 197.914062 148.390625 197.300781 148.71875 C 196.6875 149.046875 196.058594 149.34375 195.414062 149.609375 C 194.773438 149.875 194.117188 150.109375 193.453125 150.308594 C 192.785156 150.511719 192.109375 150.679688 191.429688 150.816406 C 190.746094 150.953125 190.058594 151.054688 189.367188 151.121094 C 188.671875 151.1875 187.976562 151.222656 187.28125 151.222656 C 186.585938 151.222656 185.890625 151.1875 185.199219 151.121094 C 184.507812 151.054688 183.820312 150.953125 183.136719 150.816406 C 182.453125 150.679688 181.78125 150.511719 181.113281 150.308594 C 180.449219 150.109375 179.792969 149.875 179.148438 149.609375 C 178.507812 149.34375 177.878906 149.046875 177.265625 148.71875 C 176.652344 148.390625 176.054688 148.035156 175.476562 147.648438 C 174.898438 147.265625 174.339844 146.851562 173.800781 146.410156 C 173.261719 145.96875 172.746094 145.503906 172.253906 145.011719 C 171.761719 144.523438 171.296875 144.007812 170.855469 143.472656 C 170.414062 142.933594 170 142.378906 169.613281 141.800781 C 169.226562 141.222656 168.867188 140.628906 168.539062 140.015625 C 168.210938 139.402344 167.914062 138.777344 167.648438 138.136719 C 167.382812 137.492188 167.148438 136.839844 166.945312 136.175781 C 166.742188 135.511719 166.574219 134.839844 166.4375 134.15625 C 166.304688 133.476562 166.203125 132.789062 166.132812 132.097656 C 166.066406 131.410156 166.03125 130.714844 166.03125 130.019531 C 166.03125 129.328125 166.066406 128.632812 166.132812 127.941406 C 166.203125 127.253906 166.304688 126.566406 166.4375 125.886719 C 166.574219 125.203125 166.742188 124.53125 166.945312 123.867188 C 167.148438 123.203125 167.382812 122.550781 167.648438 121.90625 C 167.914062 121.265625 168.210938 120.640625 168.539062 120.027344 C 168.867188 119.414062 169.226562 118.820312 169.613281 118.242188 C 170 117.664062 170.414062 117.109375 170.855469 116.570312 C 171.296875 116.035156 171.761719 115.519531 172.253906 115.03125 C 172.746094 114.539062 173.261719 114.074219 173.800781 113.632812 C 174.339844 113.191406 174.898438 112.777344 175.476562 112.394531 C 176.054688 112.007812 176.652344 111.648438 177.265625 111.324219 C 177.878906 110.996094 178.507812 110.699219 179.148438 110.433594 C 179.792969 110.167969 180.449219 109.933594 181.113281 109.734375 C 181.78125 109.53125 182.453125 109.363281 183.136719 109.226562 C 183.820312 109.089844 184.507812 108.988281 185.199219 108.921875 C 185.890625 108.855469 186.585938 108.820312 187.28125 108.820312 C 187.976562 108.820312 188.671875 108.855469 189.367188 108.921875 C 190.058594 108.988281 190.746094 109.089844 191.429688 109.226562 C 192.109375 109.363281 192.785156 109.53125 193.453125 109.734375 C 194.117188 109.933594 194.773438 110.167969 195.414062 110.433594 C 196.058594 110.699219 196.6875 110.996094 197.300781 111.324219 C 197.914062 111.648438 198.511719 112.007812 199.089844 112.394531 C 199.667969 112.777344 200.226562 113.191406 200.765625 113.632812 C 201.300781 114.074219 201.816406 114.539062 202.308594 115.03125 C 202.800781 115.519531 203.269531 116.035156 203.710938 116.570312 C 204.152344 117.109375 204.566406 117.664062 204.953125 118.242188 C 205.339844 118.820312 205.695312 119.414062 206.023438 120.027344 C 206.351562 120.640625 206.648438 121.265625 206.914062 121.90625 C 207.183594 122.550781 207.417969 123.203125 207.617188 123.867188 C 207.820312 124.53125 207.988281 125.203125 208.125 125.886719 C 208.261719 126.566406 208.363281 127.253906 208.429688 127.941406 C 208.5 128.632812 208.535156 129.328125 208.535156 130.019531 Z M 208.535156 130.019531 " fill-opacity="1" fill-rule="nonzero"/></svg>